<?xml version="1.0" standalone="no"?><!DOCTYPE svg PUBLIC "-//W3C//DTD SVG 1.1//EN" "http://www.w3.org/Graphics/SVG/1.1/DTD/svg11.dtd"><svg t="1551428415611" class="icon" style="" viewBox="0 0 1024 1024" version="1.1" xmlns="http://www.w3.org/2000/svg" p-id="3345" xmlns:xlink="http://www.w3.org/1999/xlink" width="200" height="200"><defs><style type="text/css"></style></defs><path d="M994.471253 382.54592c12.66688 0 22.64576-10.368 22.64576-23.03488V248.200533c0-48.365227-39.149227-87.514453-87.514453-87.514453H102.423893c-48.365227 0-87.51616 39.149227-87.51616 87.514453v111.312214c0 12.281173 9.97888 22.649173 22.258347 23.03488 61.800107 1.152 112.08704 52.584107 112.08704 114.382506s-50.285227 113.23392-112.08704 114.384214a22.94272 22.94272 0 0 0-22.258347 23.02976v111.317333c0 48.360107 39.150933 87.514453 87.51616 87.514453h827.562667c48.365227 0 87.514453-39.154347 87.514453-87.514453v-111.317333c0-12.668587-10.36288-23.02976-22.64576-23.02976-62.952107 0-114.005333-51.432107-114.005333-114.384214-0.37888-62.952107 50.670933-114.384213 113.621333-114.384213z m-159.675733 114.384213c0 80.221867 59.4944 147.012267 137.028267 158.527147v90.20416c0 23.026347-18.807467 41.837227-41.837227 41.837227h-827.562667c-23.02976 0-41.838933-18.809173-41.838933-41.837227v-90.58816c76.002987-12.281173 134.72768-79.076693 134.72768-158.143147 0-79.07328-58.7264-145.476267-134.72768-158.143146V248.200533c0-23.028053 18.809173-41.838933 41.838933-41.838933h827.562667c23.02976 0 41.837227 18.809173 41.837227 41.838933v90.20416c-77.533867 11.513173-137.028267 78.30016-137.028267 158.52544z m0 0" fill="#2c2c2c" p-id="3346"></path><path d="M428.484267 541.897387c8.722773 4.374187 9.823573 10.922667 3.273386 19.647146-45.84448 10.924373-82.96448 17.472853-111.336106 19.648854-10.924373-4.348587-12.023467-10.898773-3.275094-19.648854 28.371627-2.174293 65.493333-8.72448 111.337814-19.647146z m-91.690667-232.4992h81.865387c23.99744 2.2016 33.821013 13.098667 29.472426 32.74752l-16.37376 117.886293h6.54848c21.823147 0 31.64672 10.924373 29.472427 32.74752 2.174293 41.495893 1.073493 78.590293-3.273387 111.336107-2.2016 39.296-18.573653 58.943147-49.119573 58.943146-15.29856 0-33.846613-4.374187-55.668053-13.098666-4.374187-13.098667-1.1008-19.647147 9.823573-19.647147 19.647147 8.722773 36.020907 13.098667 49.119573 13.098667 15.27296 0 23.99744-13.098667 26.197334-39.296 4.348587-30.544213 5.449387-65.491627 3.275093-104.78592 2.174293-13.098667-3.275093-19.648853-16.37376-19.648854h-72.041813c-19.647147 2.2016-29.472427-6.54848-29.472427-26.197333 4.348587-19.647147 8.72448-53.46816 13.098667-101.512533 8.722773-6.54848 15.27296-5.449387 19.647146 3.275093-2.199893 28.397227-5.474987 57.867947-9.823573 88.413867-2.199893 13.098667 2.174293 18.573653 13.098667 16.37376h45.84448l16.37376-114.6112c2.174293-10.898773-3.275093-16.372053-16.37376-16.372054H336.7936c-8.748373-6.5536-8.748373-13.103787 0-19.652266z m222.67392 0c13.098667-17.447253 27.270827-17.447253 42.569387 0 30.54592 45.84448 64.390827 82.966187 101.512533 111.337813 2.174293 10.922667-2.199893 16.372053-13.098667 16.372053-37.121707-30.54592-70.966613-67.66592-101.512533-111.336106-4.374187-6.54848-9.823573-6.54848-16.37376 0-34.947413 50.218667-67.693227 86.239573-98.239147 108.06272-10.924373 2.199893-15.29856-3.275093-13.098666-16.37376 32.749227-21.823147 65.49504-57.842347 98.240853-108.06272z m114.612907 153.9072c8.722773-8.72448 15.27296-6.54848 19.648853 6.54848-19.648853 72.041813-37.121707 126.634667-52.394667 163.730773H697.002667c8.72448 6.550187 8.72448 13.098667 0 19.648853H480.877227c-8.748373-6.550187-8.748373-13.098667 0-19.648853h137.53344c21.823147-48.018773 40.3712-104.78592 55.66976-170.279253z m-163.730774 32.745813c13.09696 30.57152 23.99744 64.418133 32.745814 101.512533-4.374187 10.922667-10.922667 13.098667-19.648854 6.54848-8.748373-37.0944-19.647147-69.840213-32.745813-98.239146 2.174293-13.095253 8.72448-16.370347 19.648853-9.821867z m-9.82528-72.041813h157.182294c8.722773 6.54848 8.722773 13.098667 0 19.647146h-157.182294c-8.748373-6.54848-8.748373-13.09696 0-19.647146z m75.316907 58.943146c13.098667 28.397227 23.99744 62.21824 32.74752 101.512534-4.374187 10.922667-10.924373 13.098667-19.648853 6.54848-8.75008-37.0944-19.648853-69.840213-32.74752-98.23744 2.176-13.09696 8.726187-16.372053 19.648853-9.823574z" fill="#2c2c2c" p-id="3347"></path></svg>